# xmcd CD database file
#
# Track frame offsets:
#	150
#	18567
#	28597
#	46977
#
# Disc length: 756 seconds
#
# Revision: 0
# Processed by: cddbd v1.5.1PL2 Copyright (c) Steve Scherf et al.
# Submitted via: CDex 1.51
#
DISCID=2902f204
DTITLE=おはガールスターフルー２ - スタフルミュージックボックス
DYEAR=2004
DGENRE=JPop
TTITLE0=スタフル★ミラクルドゥー 〜キセキのチカラ〜
TTITLE1=スタフル★ミラクルマジック
TTITLE2=スタフル★ミラクルドゥー 〜キセキのチカラ〜(カラオケ)
TTITLE3=スタフル★ミラクルマジック(カラオケ)
EXTD=YEAR: 2004
EXTT0=
EXTT1=
EXTT2=
EXTT3=
PLAYORDER=
